G04 #@! TF.GenerationSoftware,KiCad,Pcbnew,9.0.7*
G04 #@! TF.CreationDate,2026-07-13T23:30:37+01:00*
G04 #@! TF.ProjectId,modem-line-inducer,6d6f6465-6d2d-46c6-996e-652d696e6475,1*
G04 #@! TF.SameCoordinates,Original*
G04 #@! TF.FileFunction,Copper,L2,Bot*
G04 #@! TF.FilePolarity,Positive*
%FSLAX46Y46*%
G04 Gerber Fmt 4.6, Leading zero omitted, Abs format (unit mm)*
G04 Created by KiCad (PCBNEW 9.0.7) date 2026-07-13 23:30:37*
%MOMM*%
%LPD*%
G01*
G04 APERTURE LIST*
G04 Aperture macros list*
%AMRoundRect*
0 Rectangle with rounded corners*
0 $1 Rounding radius*
0 $2 $3 $4 $5 $6 $7 $8 $9 X,Y pos of 4 corners*
0 Add a 4 corners polygon primitive as box body*
4,1,4,$2,$3,$4,$5,$6,$7,$8,$9,$2,$3,0*
0 Add four circle primitives for the rounded corners*
1,1,$1+$1,$2,$3*
1,1,$1+$1,$4,$5*
1,1,$1+$1,$6,$7*
1,1,$1+$1,$8,$9*
0 Add four rect primitives between the rounded corners*
20,1,$1+$1,$2,$3,$4,$5,0*
20,1,$1+$1,$4,$5,$6,$7,0*
20,1,$1+$1,$6,$7,$8,$9,0*
20,1,$1+$1,$8,$9,$2,$3,0*%
G04 Aperture macros list end*
G04 #@! TA.AperFunction,ComponentPad*
%ADD10RoundRect,0.250000X0.510000X-0.510000X0.510000X0.510000X-0.510000X0.510000X-0.510000X-0.510000X0*%
G04 #@! TD*
G04 #@! TA.AperFunction,ComponentPad*
%ADD11C,1.520000*%
G04 #@! TD*
G04 #@! TA.AperFunction,ComponentPad*
%ADD12R,1.700000X1.700000*%
G04 #@! TD*
G04 #@! TA.AperFunction,ComponentPad*
%ADD13C,1.700000*%
G04 #@! TD*
G04 #@! TA.AperFunction,ComponentPad*
%ADD14C,1.400000*%
G04 #@! TD*
G04 #@! TA.AperFunction,ComponentPad*
%ADD15RoundRect,0.250000X-0.510000X0.510000X-0.510000X-0.510000X0.510000X-0.510000X0.510000X0.510000X0*%
G04 #@! TD*
G04 #@! TA.AperFunction,Conductor*
%ADD16C,0.250000*%
G04 #@! TD*
G04 APERTURE END LIST*
D10*
X209460000Y-63150000D03*
D11*
X212000000Y-61880000D03*
X209460000Y-60610000D03*
X212000000Y-59340000D03*
X209460000Y-58070000D03*
X212000000Y-56800000D03*
D12*
X202060000Y-60600000D03*
D13*
X204600000Y-60600000D03*
D12*
X201800000Y-64400000D03*
D13*
X199260000Y-64400000D03*
D14*
X199000000Y-58600000D03*
X196460000Y-58600000D03*
D15*
X192340000Y-56730000D03*
D11*
X189800000Y-58000000D03*
X192340000Y-59270000D03*
X189800000Y-60540000D03*
X192340000Y-61810000D03*
X189800000Y-63080000D03*
D16*
X209450000Y-60600000D02*
X209460000Y-60610000D01*
X201800000Y-63400000D02*
X204600000Y-60600000D01*
X204600000Y-60600000D02*
X209450000Y-60600000D01*
X201800000Y-64400000D02*
X201800000Y-63400000D01*
X208704486Y-62064000D02*
X210280164Y-62064000D01*
X210280164Y-62064000D02*
X212000000Y-60344164D01*
X189800000Y-60805836D02*
X195794164Y-66800000D01*
X189800000Y-60540000D02*
X189800000Y-60805836D01*
X195794164Y-66800000D02*
X203968486Y-66800000D01*
X212000000Y-60344164D02*
X212000000Y-59340000D01*
X203968486Y-66800000D02*
X208704486Y-62064000D01*
X201200000Y-57000000D02*
X202060000Y-57860000D01*
X192340000Y-59270000D02*
X195790000Y-59270000D01*
X196460000Y-57540000D02*
X197000000Y-57000000D01*
X196460000Y-58600000D02*
X196460000Y-57540000D01*
X195790000Y-59270000D02*
X196460000Y-58600000D01*
X202060000Y-57860000D02*
X202060000Y-60600000D01*
X197000000Y-57000000D02*
X201200000Y-57000000D01*
X199000000Y-58600000D02*
X199000000Y-64140000D01*
X199000000Y-64140000D02*
X199260000Y-64400000D01*
M02*
